<!-- Created by Maxim Kulikov from the Noun Project https://thenounproject.com/term/ninja/1343397 -->
  <svg xmlns="http://www.w3.org/2000/svg" xmlns:xlink="http://www.w3.org/1999/xlink" version="1.1" x="0px" y="0px" viewBox="0 0 100 125" style="enable-background:new 0 0 100 100;" xml:space="preserve">
    <path d="M76.38,77.077l-0.608,4.089c-0.008,0.04-0.039,0.072-0.079,0.082l-5.227,1.221c-0.066,0.015-0.129-0.035-0.128-0.103  l0.049-4.555c0.001-0.052,0.04-0.096,0.091-0.102l5.786-0.755C76.335,76.943,76.394,77.006,76.38,77.077z"/>
    <path d="M68.293,78.112l-0.049,4.497c-0.001,0.06-0.051,0.106-0.111,0.103l-8.293-0.481c-0.046-0.003-0.085-0.035-0.096-0.08  l-0.447-2.863c-0.014-0.06,0.027-0.12,0.088-0.128l8.789-1.152C68.238,77.999,68.294,78.048,68.293,78.112z"/>
    <path d="M38.838,79.02l-0.171,0.859l-4.4,1.884c-0.069,0.026-0.143-0.025-0.142-0.099l0.019-3.049  c0.001-0.06,0.052-0.108,0.112-0.104l4.553,0.306C38.92,78.825,38.943,78.98,38.838,79.02z"/>
    <path d="M32.049,78.467l-0.029,3.325c-0.001,0.06-0.051,0.107-0.111,0.103l-7.384-0.428c-0.05-0.003-0.091-0.041-0.098-0.091  l-0.308-3.395c-0.008-0.065,0.045-0.122,0.111-0.118l7.72,0.498C32.006,78.365,32.049,78.412,32.049,78.467z"/>
    <path d="M38.331,42.908c0.963,0,1.738,0.785,1.738,1.748c0,0.953-0.775,1.738-1.738,1.738s-1.738-0.785-1.738-1.738  C36.594,43.694,37.368,42.908,38.331,42.908z"/>
    <path d="M39.37,40.952c-2.92-0.775-5.513,1.845-4.728,4.762c0.344,1.277,1.381,2.306,2.66,2.64c2.917,0.762,5.504-1.837,4.719-4.756  C41.678,42.323,40.647,41.291,39.37,40.952z M25.893,45.572c0.77-2.915-1.82-5.505-4.735-4.735c-1.28,0.338-2.315,1.373-2.654,2.654  c-0.77,2.915,1.82,5.505,4.735,4.735C24.519,47.887,25.554,46.852,25.893,45.572z M19.78,39.223l21.284-0.021  c1.026,0,2.01,0.482,2.638,1.298c0.45,0.597,0.691,1.33,0.67,2.073l-0.126,6.47c-0.01,0.555-0.209,1.099-0.555,1.539  c-0.764,0.932-1.895,1.476-3.099,1.487h-1.612c-1.497-0.031-2.942-0.482-4.188-1.319l-1.274-0.869  c-0.68-0.464-1.485-0.712-2.308-0.712h-2.576c-0.786,0-1.555,0.226-2.216,0.651l-1.121,0.721c-1.246,0.775-2.67,1.183-4.135,1.183  l-1.194-0.021c-1.256-0.021-2.439-0.649-3.193-1.686c-0.314-0.44-0.482-0.984-0.471-1.539l0.157-6.009  c0.021-0.701,0.262-1.403,0.701-1.958C17.791,39.694,18.743,39.234,19.78,39.223z"/>
    <path d="M22.198,42.793c0.963,0,1.738,0.785,1.738,1.738c0,0.963-0.775,1.738-1.738,1.738c-0.963,0-1.738-0.775-1.738-1.738  C20.46,43.579,21.235,42.793,22.198,42.793z"/>
    <path d="M54.452,27.187l-0.101,5.862c-0.001,0.057-0.047,0.102-0.104,0.103L7.185,33.476c0,0-0.01,0-0.021,0l-2.059,0.02  C5.046,33.496,4.998,33.447,5,33.388l0.141-5.319c0.001-0.056,0.047-0.101,0.103-0.102l49.102-0.886  C54.405,27.08,54.453,27.128,54.452,27.187z"/>
    <path d="M54.232,18.394l-0.112,6.5c-0.001,0.056-0.046,0.102-0.103,0.103L8.551,25.81c-0.06,0.001-0.108-0.048-0.107-0.108  l0.162-5.948c0.002-0.055,0.046-0.1,0.102-0.102l45.417-1.365C54.184,18.286,54.234,18.335,54.232,18.394z"/>
    <path d="M90.143,20.916l-0.05,5.468c-0.001,0.059-0.05,0.106-0.109,0.104L56.315,25c-0.057-0.003-0.101-0.05-0.1-0.106l0.111-6.446  c0.001-0.06,0.052-0.107,0.112-0.103l33.608,2.466C90.101,20.815,90.144,20.861,90.143,20.916z"/>
    <path d="M92.928,28.813l-0.05,4.861c-0.001,0.058-0.046,0.105-0.104,0.104c-11.215-0.188-30.66-0.508-36.232-0.604  c-0.058-0.001-0.098-0.049-0.097-0.106l0.101-5.85c0.001-0.059,0.05-0.105,0.109-0.103l36.172,1.593  C92.884,28.71,92.929,28.757,92.928,28.813z"/>
    <path d="M94.332,42.406c0.681,1.141,0.848,2.523,0.471,3.79l-1.4,4.623c-0.024,0.079-0.126,0.101-0.18,0.038l-1.524-1.772  c-0.017-0.02-0.026-0.045-0.025-0.071l0.302-10.175c0.003-0.105,0.141-0.14,0.195-0.051L94.332,42.406z"/>
    <path d="M82.992,45.399l-0.133,7.976c-0.001,0.055-0.044,0.1-0.099,0.103l-3.843,0.209c-0.06,0.003-0.111-0.045-0.11-0.106  l0.102-8.304c0.001-0.059,0.049-0.105,0.108-0.103l3.873,0.119C82.948,45.294,82.993,45.341,82.992,45.399z"/>
    <path d="M76.815,45.244l-0.102,8.385c-0.001,0.058-0.049,0.105-0.107,0.103l-3.998-0.082c-0.398-0.01-0.712-0.335-0.712-0.733  l0.105-7.098c0.01-0.387,0.325-0.712,0.722-0.712l3.988,0.031C76.77,45.138,76.816,45.186,76.815,45.244z"/>
    <path d="M89.872,35.829c0.058,0.001,0.103,0.05,0.101,0.108l-0.415,13.462l-0.709,23.708c-0.002,0.051-0.04,0.094-0.091,0.101  l-33.335,4.359c-0.063,0.008-0.119-0.042-0.118-0.106l0.729-42.102c0.001-0.058,0.042-0.104,0.1-0.103  C60.715,35.333,78.159,35.622,89.872,35.829z M85.108,44.301c0.01-0.576-0.44-1.047-1.016-1.068l-6.187-0.178  c-0.01-0.01-0.021-0.01-0.021-0.01l-5.14-0.031c-0.01,0-0.01,0-0.021,0c-1.539,0-2.795,1.246-2.816,2.785l-0.105,7.088  c-0.021,1.539,1.214,2.827,2.764,2.858l5.078,0.094c0.031,0.01,0.063,0.01,0.094,0.01s0.052,0,0.073,0l7.005-0.394  c0.055-0.003,0.098-0.048,0.099-0.103L85.108,44.301z"/>
    <path d="M8.351,35.558l45.483-0.313c0.059,0,0.106,0.048,0.105,0.106L53.21,77.546c-0.001,0.06-0.052,0.107-0.111,0.103  L9.855,74.825c-0.054-0.003-0.096-0.047-0.098-0.1l-1.51-39.058C8.245,35.608,8.292,35.559,8.351,35.558z M19.769,37.129  c-1.675,0.01-3.235,0.764-4.261,2.094c-0.712,0.911-1.11,2.042-1.141,3.193l-0.157,6.009c-0.021,1.005,0.283,2,0.879,2.827  c1.11,1.56,2.921,2.513,4.837,2.544l1.235,0.021c1.864,0,3.675-0.513,5.245-1.497l0.147-0.105c1.005-0.618,2.157-0.953,3.423-0.953  h0.374c0.914,0,1.809,0.266,2.575,0.766l0.704,0.459c1.57,1.057,3.413,1.644,5.318,1.675c0,0,0.01,0,0.021,0h1.633  c1.832-0.01,3.549-0.838,4.711-2.261c0.639-0.796,1.005-1.801,1.026-2.827l0.126-6.46c0.021-1.214-0.366-2.418-1.11-3.382  c-1.016-1.33-2.617-2.125-4.303-2.125L19.769,37.129z"/>
    <text x="0" y="115" fill="#000000" font-size="5px" font-weight="bold" font-family="'Helvetica Neue', Helvetica, Arial-Unicode, Arial, Sans-serif">
      Created by Maxim Kulikov
    </text>
    <text x="0" y="120" fill="#000000" font-size="5px" font-weight="bold" font-family="'Helvetica Neue', Helvetica, Arial-Unicode, Arial, Sans-serif">
      from the Noun Project
    </text>
  </svg>
